<?xml version="1.0" encoding="UTF-8"?>
<svg width="200px" height="71px" viewBox="0 0 200 71" version="1.1" xmlns="http://www.w3.org/2000/svg" xmlns:xlink="http://www.w3.org/1999/xlink">
    <title>Shape</title>
    <g id="Logo" stroke="none" stroke-width="1" fill="none" fill-rule="evenodd">
        <g id="UNION" transform="translate(-194.000000, -388.000000)" fill="#FDFEFF">
            <path d="M241.056986,388.088247 L261.179229,388.089877 L238.124912,423.544877 L261.179229,459 L241.056986,459 L227.589376,439.747646 L214.121725,459 L194,459 L217.053841,423.544877 L194,388.089877 L214.121725,388.088247 L227.589376,407.342109 L241.056986,388.088247 Z M301.753536,388 C321.438057,389.459127 331.280318,401.27769 331.280318,423.455689 C331.280318,445.411909 321.633918,457.22753 302.341118,458.902553 L301.753536,458.950207 L270.297845,458.950207 L270.297845,388 L301.753536,388 Z M366.432091,403.884375 C381.657427,403.884375 394,416.211281 394,431.417291 C394,432.735389 393.907259,434.031854 393.727939,435.300533 L356.535919,435.300138 C356.535919,441.148603 361.283062,445.889721 367.138961,445.889721 C370.279058,445.889721 373.100343,444.526458 375.041822,442.360212 L391.736659,442.360358 C387.498716,452.121884 377.763837,458.950207 366.432091,458.950207 C351.206755,458.950207 338.864182,446.623301 338.864182,431.417291 C338.864182,416.211281 351.206755,403.884375 366.432091,403.884375 Z M294.074382,402.119444 L282.31627,402.119444 L282.31627,444.831189 L293.954876,444.831189 C295.175229,444.831189 296.011091,444.489827 296.462464,443.807103 C296.913836,443.124663 297.145976,442.395159 297.158884,441.618589 L297.158884,405.331618 C297.158884,404.563214 296.926744,403.833655 296.462464,403.142941 C296.013659,402.475251 295.217632,402.134194 294.074382,402.119444 L294.074382,402.119444 Z M366.432091,415.17993 C360.380996,415.17993 355.475614,420.079085 355.475614,426.122499 L377.388568,426.122499 C377.388568,420.079085 372.483186,415.17993 366.432091,415.17993 Z" id="Shape"></path>
        </g>
    </g>
</svg>